<svg height="60" viewBox="0 0 120 60" width="120" xmlns="http://www.w3.org/2000/svg"><g fill="#466bb0" transform="matrix(.10187109741 0 0 .10187109741 12.74782618452 3.23513586257)"><path d="m129.4 479.2-118.1-59h314.8z"/><path d="m129.4 164.4-118.1 236.1 118.1-19.7z"/><path d="m149 7v373.8l177.1 19.7z"/></g><g transform="matrix(.2479399 0 0 .2479399 37.967145 -104.63137)"><path d="m82.8 504v76.7h-16.9v-76.7z"/><path d="m108.8 566.8c.7 1.2 1.6 2.1 2.6 2.9 1.1.8 2.3 1.3 3.7 1.7s2.8.5 4.3.5c1.1 0 2.2-.1 3.4-.4s2.3-.6 3.2-1.2c1-.5 1.8-1.3 2.4-2.1.6-.9 1-2 1-3.4 0-2.3-1.5-4-4.6-5.2-3-1.1-7.3-2.3-12.7-3.4-2.2-.5-4.4-1.1-6.5-1.8s-4-1.6-5.6-2.7-3-2.5-4-4.2-1.5-3.7-1.5-6.2c0-3.6.7-6.5 2.1-8.8s3.2-4.1 5.5-5.4 4.9-2.3 7.7-2.8c2.9-.5 5.8-.8 8.8-.8s5.9.3 8.7.9 5.3 1.5 7.6 2.9c2.2 1.4 4.1 3.2 5.5 5.4 1.5 2.3 2.3 5.1 2.6 8.5h-14.5c-.2-2.9-1.3-4.9-3.3-6-2-1-4.4-1.6-7.1-1.6-.9 0-1.8.1-2.8.2s-1.9.3-2.7.7-1.5.9-2.1 1.6-.9 1.6-.9 2.7c0 1.4.5 2.5 1.5 3.3 1 .9 2.3 1.6 3.9 2.1s3.5 1 5.5 1.4c2.1.4 4.2.9 6.3 1.4 2.2.5 4.4 1.1 6.5 1.8s4 1.7 5.6 2.8c1.6 1.2 3 2.6 4 4.4s1.5 3.9 1.5 6.5c0 3.7-.7 6.7-2.2 9.2s-3.4 4.5-5.7 6c-2.4 1.5-5.1 2.6-8.1 3.2s-6.1.9-9.3.9-6.4-.3-9.4-1c-3.1-.6-5.8-1.7-8.2-3.2s-4.4-3.5-5.9-6-2.4-5.6-2.5-9.3h14.5c.2 1.9.5 3.3 1.2 4.5z"/><path d="m184.1 525.1v10.2h-11.1v27.5c0 2.6.4 4.3 1.3 5.2s2.6 1.3 5.2 1.3c.9 0 1.7 0 2.5-.1s1.5-.2 2.3-.3v11.8c-1.3.2-2.7.4-4.3.4-1.6.1-3.1.1-4.6.1-2.4 0-4.6-.2-6.7-.5s-4-.9-5.6-1.9c-1.6-.9-2.9-2.3-3.8-4s-1.4-4-1.4-6.8v-32.7h-9.2v-10.2h9.2v-16.6h15.1v16.6z"/><path d="m191.8 516.5v-12.5h15.2v12.6h-15.2zm15.3 8.6v55.5h-15.2v-55.5z"/><path d="m219.4 540.8c1.4-3.6 3.3-6.7 5.8-9.2s5.5-4.5 9-5.9 7.4-2.1 11.8-2.1 8.3.7 11.9 2.1c3.5 1.4 6.6 3.4 9.1 5.9s4.4 5.6 5.8 9.2 2 7.6 2 12.1c0 4.4-.7 8.4-2 12-1.4 3.6-3.3 6.6-5.8 9.2-2.5 2.5-5.5 4.5-9.1 5.9-3.5 1.4-7.5 2-11.9 2s-8.3-.7-11.8-2c-3.5-1.4-6.5-3.3-9-5.9-2.5-2.5-4.4-5.6-5.8-9.2s-2-7.6-2-12 .7-8.5 2-12.1zm13.9 18.6c.4 2.1 1.2 4 2.2 5.7s2.4 3 4.1 4 3.9 1.5 6.4 1.5 4.7-.5 6.5-1.5 3.1-2.3 4.2-4c1-1.7 1.8-3.6 2.2-5.7s.6-4.3.6-6.5-.2-4.4-.6-6.5-1.2-4-2.2-5.7c-1-1.6-2.4-3-4.2-4s-3.9-1.6-6.5-1.6-4.7.5-6.4 1.6c-1.7 1-3.1 2.4-4.1 4s-1.8 3.5-2.2 5.7-.6 4.3-.6 6.5c-.1 2.2.2 4.4.6 6.5z"/></g></svg>